<svg width="95" height="24" viewBox="0 0 95 24" fill="none" xmlns="http://www.w3.org/2000/svg">
<g clip-path="url(#clip0)">
<path d="M0 23.8063L8.81781 0.219238H13.4332L22.251 23.8063H18.0972L15.8623 17.9763H6.19433L4.00809 23.8063H0ZM7.28744 14.6727H14.7935L11.0283 4.39737L7.28744 14.6727Z" fill="white"/>
<path d="M23.417 0.21875H27.0607V23.8058H23.417V0.21875Z" fill="white"/>
<path d="M30.5101 1.36033C31.2874 0.583 32.502 0.194336 34.1538 0.194336H39.1579V3.40081H34.6639C34.081 3.40081 33.6437 3.54656 33.3765 3.81377C33.1093 4.08097 32.9635 4.51822 32.9635 5.10122V6.5587H39.1093V9.76518H32.9635V23.8057H29.3198V4.83401C29.3198 3.30365 29.7085 2.13765 30.5101 1.36033Z" fill="white"/>
<path d="M50.6963 6.53442V9.93523H48.2915C46.7854 9.93523 45.6923 10.4211 45.0121 11.3928C44.3319 12.3644 43.9919 13.6033 43.9919 15.1093V23.8057H40.3481V6.55872H43.5789L43.9919 9.1579C44.4777 8.35629 45.1336 7.72471 45.9109 7.26317C46.6882 6.80163 47.757 6.58301 49.0688 6.58301H50.6963V6.53442Z" fill="white"/>
<path d="M51.935 10.5425C52.6394 9.20649 53.6354 8.16195 54.8985 7.43321C56.1617 6.70446 57.6192 6.34009 59.271 6.34009C60.9228 6.34009 62.4046 6.68017 63.6677 7.36033C64.9309 8.0405 65.9268 8.98786 66.6556 10.2267C67.3843 11.4656 67.773 12.9231 67.773 14.5749C67.773 15.0364 67.7487 15.4737 67.6758 15.9595H54.6799V16.1538C54.7771 17.6599 55.2386 18.8502 56.0888 19.7247C56.939 20.5992 58.0807 21.0364 59.4896 21.0364C60.607 21.0364 61.5544 20.7692 62.3317 20.2348C63.0847 19.7004 63.5949 18.9716 63.8378 18H67.4815C67.1657 19.749 66.3155 21.1822 64.9309 22.3239C63.5463 23.4413 61.8216 24 59.7568 24C57.9592 24 56.3803 23.6356 55.0443 22.9069C53.7082 22.1781 52.6637 21.1579 51.935 19.8218C51.2062 18.4858 50.8418 16.9554 50.8418 15.2065C50.8661 13.4332 51.2305 11.8785 51.935 10.5425ZM64.0807 13.2874C63.9349 12.0243 63.4248 11.0526 62.5746 10.3482C61.7244 9.64373 60.6799 9.27936 59.3924 9.27936C58.2022 9.27936 57.1819 9.64373 56.3074 10.3725C55.4329 11.1012 54.9471 12.0729 54.8014 13.2874H64.0807Z" fill="white"/>
<path d="M86.4534 0.21875V23.8058H83.2955L82.8582 21.2066C81.4979 23.0771 79.6032 24.0001 77.2226 24.0001C75.6437 24.0001 74.2348 23.6358 73.0202 22.9313C71.7813 22.2269 70.8097 21.2066 70.1295 19.8706C69.425 18.5346 69.085 16.9556 69.085 15.158C69.085 13.409 69.4493 11.8544 70.1538 10.5184C70.8582 9.18231 71.8299 8.13778 73.0688 7.40903C74.3076 6.68029 75.6922 6.31592 77.2469 6.31592C78.5101 6.31592 79.6032 6.53454 80.5505 6.99608C81.4979 7.45762 82.2509 8.08919 82.8339 8.89081V0.21875H86.4534ZM81.4736 19.3362C82.3967 18.2916 82.8582 16.907 82.8582 15.2309C82.8582 13.5062 82.3967 12.0973 81.4736 11.0285C80.5505 9.95964 79.336 9.42523 77.8299 9.42523C76.3238 9.42523 75.1092 9.95964 74.1862 11.0285C73.2631 12.0973 72.8016 13.4819 72.8016 15.158C72.8016 16.8584 73.2631 18.2431 74.1862 19.3119C75.1092 20.3807 76.3238 20.9151 77.8299 20.9151C79.336 20.9394 80.5505 20.405 81.4736 19.3362Z" fill="white"/>
<path d="M91.36 6.75303C93.2248 6.75303 94.7365 5.24131 94.7365 3.37652C94.7365 1.51172 93.2248 0 91.36 0C89.4952 0 87.9834 1.51172 87.9834 3.37652C87.9834 5.24131 89.4952 6.75303 91.36 6.75303Z" fill="white"/>
</g>
<defs>
<clipPath id="clip0">
<rect width="95" height="24" fill="white"/>
</clipPath>
</defs>
</svg>
